<?xml version="1.0" encoding="UTF-8"?>
<svg width="200" height="200" viewBox="0 0 200 200" fill="none" xmlns="http://www.w3.org/2000/svg">
  <path d="M100 180C144.183 180 180 144.183 180 100C180 55.8172 144.183 20 100 20C55.8172 20 20 55.8172 20 100C20 144.183 55.8172 180 100 180Z" stroke="#B91C1C" stroke-width="8"/>
  <path d="M100 160C133.137 160 160 133.137 160 100C160 66.8629 133.137 40 100 40C66.8629 40 40 66.8629 40 100C40 133.137 66.8629 160 100 160Z" stroke="#D4A45F" stroke-width="4"/>
  <path d="M70 100C70 83.4315 83.4315 70 100 70V70C116.569 70 130 83.4315 130 100V130H70V100Z" fill="#B91C1C"/>
  <path d="M85 85C85 77.268 91.268 71 99 71V71C106.732 71 113 77.268 113 85V100H85V85Z" fill="#D4A45F"/>
</svg>